<?xml version="1.0" encoding="utf-8"?>
<!-- Svg Vector Icons : http://www.onlinewebfonts.com/icon -->
<!DOCTYPE svg PUBLIC "-//W3C//DTD SVG 1.1//EN" "http://www.w3.org/Graphics/SVG/1.1/DTD/svg11.dtd">
<svg version="1.1" xmlns="http://www.w3.org/2000/svg" xmlns:xlink="http://www.w3.org/1999/xlink" x="0px" y="0px" viewBox="0 0 256 256" enable-background="new 0 0 256 256" xml:space="preserve">
<metadata> Svg Vector Icons : http://www.onlinewebfonts.com/icon </metadata>
<g><g><path fill="#ffffff" d="M160.6,127.3l79-82.4c8.8-9.2,8.5-23.8-0.7-32.6c-9.2-8.8-23.8-8.5-32.6,0.7l-79,82.4L50.6,21.8C41.4,13,26.8,13.3,18,22.5l0,0c-8.8,9.2-8.5,23.8,0.7,32.6l76.7,73.6l-79,82.4c-8.8,9.2-8.5,23.8,0.7,32.6c9.2,8.8,23.8,8.5,32.6-0.7l79-82.4l76.7,73.5c9.2,8.8,23.7,8.5,32.5-0.6l0.1-0.1c8.8-9.2,8.4-23.7-0.7-32.5L160.6,127.3z"/></g></g>
</svg>